<svg width="40" height="30" viewBox="0 0 40 30" fill="none" xmlns="http://www.w3.org/2000/svg">
<path d="M23.4732 2.09875C24.3213 1.31759 25.3133 0.87107 26.441 0.734699C27.8772 0.56126 29.213 0.865629 30.4267 1.65087C31.7663 2.51704 32.5978 3.74268 32.9205 5.3067C32.9726 5.56005 32.9872 5.82157 33.0283 6.07765C33.0378 6.13819 33.0725 6.20654 33.1171 6.24803C33.7612 6.84419 34.407 7.4383 35.0565 8.02868C35.2555 8.20926 35.2524 8.33066 35.0222 8.50342C34.3383 9.0166 33.6534 9.52808 32.9722 10.0447C32.9202 10.0841 32.8736 10.1531 32.859 10.2164C32.6733 11.0251 32.5315 11.846 32.3046 12.6425C31.7925 14.4425 30.9828 16.1082 29.9098 17.643C28.8495 19.1597 27.5745 20.4667 26.0765 21.5549C26.0316 21.5876 25.9894 21.6236 25.9115 21.6855C26.0136 21.6855 26.0778 21.6855 26.1418 21.6855C30.438 21.6855 34.7342 21.6855 39.03 21.6855C39.3663 21.6855 39.448 21.7681 39.448 22.1089C39.448 22.9363 39.4483 23.7637 39.448 24.5911C39.4476 24.8836 39.3534 24.9778 39.0613 24.9778C36.8226 24.9781 34.5842 24.9778 32.3454 24.9778C32.2849 24.9778 32.2244 24.9778 32.1275 24.9778C32.1819 25.0482 32.2111 25.0934 32.2475 25.1322C32.8103 25.7307 33.3735 26.3282 33.937 26.9254C34.1207 27.1203 34.1105 27.2369 33.9112 27.4223C33.4796 27.8232 33.0532 28.2296 32.6247 28.6336C32.4226 28.8241 32.2206 29.0145 32.0186 29.2046C31.8656 29.3488 31.7221 29.3505 31.5772 29.1975C31.0083 28.5976 30.442 27.9949 29.8751 27.393C29.1569 26.6302 28.4366 25.8691 27.7235 25.1012C27.632 25.0026 27.5398 24.9757 27.4133 24.9757C18.6172 24.9781 9.82112 24.9778 1.02502 24.9778C0.968227 24.9778 0.911434 24.9802 0.854981 24.9774C0.670999 24.9686 0.555033 24.8608 0.554353 24.6768C0.550952 23.7814 0.550952 22.886 0.554012 21.9905C0.554692 21.7987 0.67236 21.6926 0.867904 21.6858C0.918916 21.6841 0.969927 21.6855 1.02094 21.6855C6.47306 21.6855 11.9255 21.6801 17.3776 21.693C18.0153 21.6943 18.6257 21.6015 19.2328 21.4335C20.3982 21.1111 21.5239 20.687 22.592 20.1164C23.6055 19.575 24.5397 18.9224 25.3933 18.1514C26.7226 16.9509 27.7602 15.5345 28.5345 13.9249C29.1586 12.6275 29.5935 11.2669 29.7928 9.83959C29.8826 9.19718 29.9462 8.54763 29.9639 7.89979C29.9816 7.2635 29.9707 6.61974 29.8928 5.98923C29.7534 4.85882 28.8467 4.06235 27.7704 3.8345C27.0348 3.67875 26.3393 3.78247 25.7214 4.23579C25.5623 4.35244 25.4191 4.49187 25.2773 4.62994C24.5662 5.32132 23.8592 6.01644 23.1491 6.7085C22.3213 7.51516 21.4919 8.32012 20.6628 9.12576C19.8867 9.88006 19.1103 10.6337 18.3343 11.3876C17.5096 12.1892 16.6856 12.9918 15.8599 13.7923C15.3436 14.2932 14.8243 14.7915 14.3067 15.291C14.2646 15.3318 14.2255 15.376 14.1636 15.4413C14.3319 15.4583 14.4642 15.476 14.5972 15.4845C15.565 15.5481 16.5308 15.5682 17.4837 15.3393C18.4727 15.1016 19.3433 14.6231 20.1064 13.9654C20.6196 13.5226 21.0981 13.037 21.5677 12.5473C21.9993 12.098 22.6733 11.9144 23.263 12.1331C23.8544 12.3524 24.2486 12.9265 24.2547 13.5631C24.2588 13.9817 24.1101 14.3344 23.8306 14.6401C23.0732 15.4696 22.2785 16.2585 21.3715 16.9275C20.2843 17.729 19.0933 18.2949 17.7517 18.5092C16.8648 18.651 15.9711 18.6544 15.0767 18.5939C14.5295 18.5564 13.9809 18.5343 13.4351 18.483C11.2535 18.2766 9.06615 18.3684 6.88115 18.3476C6.85428 18.3473 6.82776 18.3449 6.8315 18.3453C7.0869 18.0715 7.35114 17.7879 7.6164 17.5049C7.647 17.4719 7.68475 17.4458 7.71706 17.4141C8.4183 16.7292 9.11852 16.0429 9.82044 15.3587C10.6682 14.5323 11.5178 13.7073 12.3669 12.8819C13.143 12.1276 13.9194 11.374 14.6954 10.6197C15.5164 9.82224 16.3367 9.02442 17.1576 8.22694C17.9537 7.45293 18.7505 6.67925 19.5466 5.90523C20.3594 5.11557 21.1712 4.32523 21.9847 3.53626C22.4767 3.05879 22.9709 2.58302 23.4732 2.09875Z" fill="#9D77DB"/>
<path d="M28.3869 6.32829C28.9042 7.27371 28.1951 8.32455 27.2116 8.27932C26.5022 8.24633 25.9761 7.70322 25.9632 6.98396C25.951 6.27864 26.5356 5.70663 27.2293 5.69303C27.7357 5.68283 28.1067 5.9066 28.3869 6.32829Z" fill="#9D77DB"/>
</svg>
